<svg width="512" height="512" viewBox="0 0 512 512" fill="none" xmlns="http://www.w3.org/2000/svg">
  <rect x="24" y="24" width="464" height="464" rx="112" fill="#FAF7F0"/>
  <g transform="translate(24 60) scale(0.8)" stroke="#050505" stroke-width="20" stroke-linecap="round" stroke-linejoin="round">
    <path d="M72 184C91 176 112 171 131 173"/>
    <path d="M105 186C97 229 92 272 96 316"/>

    <path d="M145 192C139 233 138 274 141 314"/>
    <path d="M142 192C159 185 176 181 193 183"/>
    <path d="M145 248C157 244 168 242 180 241"/>
    <path d="M144 313C162 307 178 304 196 305"/>

      <path d="M219 192C231 225 244 259 259 313"/>
      <path d="M264 189C248 224 235 254 216 315"/>

      <path d="M288 184C307 176 327 171 346 173"/>
      <path d="M318 186C311 229 307 272 310 316"/>

      <path d="M410 192C393 181 374 182 360 198"/>
      <path d="M360 198C343 218 343 286 367 306"/>
      <path d="M367 306C381 318 397 316 412 305"/>

      <path d="M428 193C422 236 421 275 425 304"/>
      <path d="M425 304C431 321 448 324 460 310"/>
      <path d="M460 310C470 296 471 246 466 193"/>

      <path d="M486 184C505 176 525 171 544 173"/>
      <path d="M517 186C509 229 504 272 508 316"/>
  </g>
</svg>
